<?xml version="1.0" standalone="no"?>
<!DOCTYPE svg PUBLIC "-//W3C//DTD SVG 20010904//EN"
 "http://www.w3.org/TR/2001/REC-SVG-20010904/DTD/svg10.dtd">
<svg version="1.0" xmlns="http://www.w3.org/2000/svg"
 width="512.000000pt" height="512.000000pt" viewBox="0 0 512.000000 512.000000"
 preserveAspectRatio="xMidYMid meet">
<metadata>
Created by potrace 1.11, written by Peter Selinger 2001-2013
</metadata>
<g transform="translate(0.000000,512.000000) scale(0.100000,-0.100000)"
fill="#000000" stroke="none">
<path d="M2390 5106 c-473 -69 -882 -329 -1137 -724 -30 -46 -63 -103 -75
-127 -21 -43 -24 -45 -137 -86 -429 -156 -786 -454 -902 -754 -34 -87 -53
-201 -46 -270 22 -210 188 -423 465 -595 402 -249 1001 -407 1702 -450 782
-48 1618 93 2151 360 315 159 525 358 601 570 19 54 23 83 22 170 -1 89 -6
118 -32 192 -110 313 -417 607 -810 772 -59 25 -112 46 -117 46 -6 0 -27 33
-48 73 -127 241 -357 476 -612 625 -143 83 -345 155 -525 188 -118 22 -381 27
-500 10z"/>
<path d="M1440 1821 c-14 -4 -34 -21 -45 -38 -32 -46 -475 -1234 -475 -1272 0
-36 34 -77 73 -86 34 -9 77 13 98 50 32 55 469 1233 469 1262 0 29 -38 83 -59
83 -5 0 -15 2 -23 4 -7 2 -24 1 -38 -3z"/>
<path d="M3915 1823 c-30 -7 -63 -42 -70 -73 -5 -21 48 -171 221 -631 124
-332 233 -619 241 -637 16 -34 57 -62 92 -62 12 0 35 13 53 29 27 24 32 36 31
68 -1 32 -427 1186 -465 1260 -9 18 -67 56 -80 52 -1 -1 -12 -3 -23 -6z"/>
<path d="M2238 1484 c-17 -9 -31 -28 -38 -52 -13 -48 -182 -1283 -183 -1340
-1 -58 31 -92 85 -92 45 0 73 13 88 39 10 19 190 1316 190 1371 0 22 -9 41
-29 61 -33 33 -70 37 -113 13z"/>
<path d="M3073 1490 c-12 -5 -29 -23 -38 -40 -15 -29 -11 -64 75 -698 50 -367
93 -677 96 -689 11 -41 42 -63 89 -63 50 0 80 22 91 64 7 28 -172 1361 -187
1388 -22 42 -76 58 -126 38z"/>
</g>
</svg>
